<svg xmlns="http://www.w3.org/2000/svg" width="1080" height="1860" viewBox="0 0 1080 1860"><rect width="1080" height="1860" fill="#15181C"/><text x="36" y="78" font-family="DejaVu Sans, Verdana, sans-serif" font-size="34" font-weight="normal" fill="#9AA0A6" text-anchor="start">‹ Menu</text><text x="540.0" y="80" font-family="DejaVu Sans, Verdana, sans-serif" font-size="40" font-weight="bold" fill="#E7E3DA" text-anchor="middle">MWM Chess</text><text x="1044" y="78" font-family="DejaVu Sans, Verdana, sans-serif" font-size="34" font-weight="normal" fill="#9AA0A6" text-anchor="end">Green</text><text x="36" y="190" font-family="DejaVu Sans, Verdana, sans-serif" font-size="34" font-weight="bold" fill="#E7E3DA" text-anchor="start">Computer · Hard</text><text x="1044" y="190" font-family="DejaVu Sans, Verdana, sans-serif" font-size="30" font-weight="normal" fill="#9AA0A6" text-anchor="end">vs</text><rect x="36.0" y="250.0" width="126.0" height="126.0" fill="#EEEED2"/><rect x="162.0" y="250.0" width="126.0" height="126.0" fill="#769656"/><rect x="288.0" y="250.0" width="126.0" height="126.0" fill="#EEEED2"/><rect x="414.0" y="250.0" width="126.0" height="126.0" fill="#769656"/><rect x="540.0" y="250.0" width="126.0" height="126.0" fill="#EEEED2"/><rect x="666.0" y="250.0" width="126.0" height="126.0" fill="#769656"/><rect x="792.0" y="250.0" width="126.0" height="126.0" fill="#EEEED2"/><rect x="918.0" y="250.0" width="126.0" height="126.0" fill="#769656"/><rect x="36.0" y="376.0" width="126.0" height="126.0" fill="#769656"/><rect x="162.0" y="376.0" width="126.0" height="126.0" fill="#EEEED2"/><rect x="288.0" y="376.0" width="126.0" height="126.0" fill="#769656"/><rect x="414.0" y="376.0" width="126.0" height="126.0" fill="#EEEED2"/><rect x="540.0" y="376.0" width="126.0" height="126.0" fill="#769656"/><rect x="666.0" y="376.0" width="126.0" height="126.0" fill="#EEEED2"/><rect x="792.0" y="376.0" width="126.0" height="126.0" fill="#769656"/><rect x="918.0" y="376.0" width="126.0" height="126.0" fill="#EEEED2"/><rect x="36.0" y="502.0" width="126.0" height="126.0" fill="#EEEED2"/><rect x="162.0" y="502.0" width="126.0" height="126.0" fill="#769656"/><rect x="288.0" y="502.0" width="126.0" height="126.0" fill="#EEEED2"/><rect x="414.0" y="502.0" width="126.0" height="126.0" fill="#769656"/><rect x="540.0" y="502.0" width="126.0" height="126.0" fill="#EEEED2"/><rect x="666.0" y="502.0" width="126.0" height="126.0" fill="#769656"/><rect x="792.0" y="502.0" width="126.0" height="126.0" fill="#EEEED2"/><rect x="918.0" y="502.0" width="126.0" height="126.0" fill="#769656"/><rect x="36.0" y="628.0" width="126.0" height="126.0" fill="#769656"/><rect x="162.0" y="628.0" width="126.0" height="126.0" fill="#EEEED2"/><rect x="288.0" y="628.0" width="126.0" height="126.0" fill="#769656"/><rect x="414.0" y="628.0" width="126.0" height="126.0" fill="#EEEED2"/><rect x="540.0" y="628.0" width="126.0" height="126.0" fill="#769656"/><rect x="666.0" y="628.0" width="126.0" height="126.0" fill="#EEEED2"/><rect x="792.0" y="628.0" width="126.0" height="126.0" fill="#769656"/><rect x="918.0" y="628.0" width="126.0" height="126.0" fill="#EEEED2"/><rect x="36.0" y="754.0" width="126.0" height="126.0" fill="#EEEED2"/><rect x="162.0" y="754.0" width="126.0" height="126.0" fill="#769656"/><rect x="288.0" y="754.0" width="126.0" height="126.0" fill="#EEEED2"/><rect x="414.0" y="754.0" width="126.0" height="126.0" fill="#769656"/><rect x="540.0" y="754.0" width="126.0" height="126.0" fill="#EEEED2"/><rect x="666.0" y="754.0" width="126.0" height="126.0" fill="#769656"/><rect x="792.0" y="754.0" width="126.0" height="126.0" fill="#EEEED2"/><rect x="918.0" y="754.0" width="126.0" height="126.0" fill="#769656"/><rect x="36.0" y="880.0" width="126.0" height="126.0" fill="#769656"/><rect x="162.0" y="880.0" width="126.0" height="126.0" fill="#EEEED2"/><rect x="288.0" y="880.0" width="126.0" height="126.0" fill="#769656"/><rect x="414.0" y="880.0" width="126.0" height="126.0" fill="#EEEED2"/><rect x="540.0" y="880.0" width="126.0" height="126.0" fill="#769656"/><rect x="666.0" y="880.0" width="126.0" height="126.0" fill="#EEEED2"/><rect x="792.0" y="880.0" width="126.0" height="126.0" fill="#769656"/><rect x="918.0" y="880.0" width="126.0" height="126.0" fill="#EEEED2"/><rect x="36.0" y="1006.0" width="126.0" height="126.0" fill="#EEEED2"/><rect x="162.0" y="1006.0" width="126.0" height="126.0" fill="#769656"/><rect x="288.0" y="1006.0" width="126.0" height="126.0" fill="#EEEED2"/><rect x="414.0" y="1006.0" width="126.0" height="126.0" fill="#769656"/><rect x="540.0" y="1006.0" width="126.0" height="126.0" fill="#EEEED2"/><rect x="666.0" y="1006.0" width="126.0" height="126.0" fill="#769656"/><rect x="792.0" y="1006.0" width="126.0" height="126.0" fill="#EEEED2"/><rect x="918.0" y="1006.0" width="126.0" height="126.0" fill="#769656"/><rect x="36.0" y="1132.0" width="126.0" height="126.0" fill="#769656"/><rect x="162.0" y="1132.0" width="126.0" height="126.0" fill="#EEEED2"/><rect x="288.0" y="1132.0" width="126.0" height="126.0" fill="#769656"/><rect x="414.0" y="1132.0" width="126.0" height="126.0" fill="#EEEED2"/><rect x="540.0" y="1132.0" width="126.0" height="126.0" fill="#769656"/><rect x="666.0" y="1132.0" width="126.0" height="126.0" fill="#EEEED2"/><rect x="792.0" y="1132.0" width="126.0" height="126.0" fill="#769656"/><rect x="918.0" y="1132.0" width="126.0" height="126.0" fill="#EEEED2"/><rect x="36.0" y="376.0" width="126.0" height="126.0" fill="rgba(155,199,0,0.41)"/><rect x="36.0" y="502.0" width="126.0" height="126.0" fill="rgba(155,199,0,0.41)"/><rect x="666.0" y="880.0" width="126.0" height="126.0" fill="rgba(155,199,0,0.62)"/><text x="42.0" y="278.0" font-family="DejaVu Sans, Verdana, sans-serif" font-size="22" font-weight="bold" fill="rgba(0,0,0,0.55)" text-anchor="start">8</text><text x="42.0" y="404.0" font-family="DejaVu Sans, Verdana, sans-serif" font-size="22" font-weight="bold" fill="rgba(255,255,255,0.6)" text-anchor="start">7</text><text x="42.0" y="530.0" font-family="DejaVu Sans, Verdana, sans-serif" font-size="22" font-weight="bold" fill="rgba(0,0,0,0.55)" text-anchor="start">6</text><text x="42.0" y="656.0" font-family="DejaVu Sans, Verdana, sans-serif" font-size="22" font-weight="bold" fill="rgba(255,255,255,0.6)" text-anchor="start">5</text><text x="42.0" y="782.0" font-family="DejaVu Sans, Verdana, sans-serif" font-size="22" font-weight="bold" fill="rgba(0,0,0,0.55)" text-anchor="start">4</text><text x="42.0" y="908.0" font-family="DejaVu Sans, Verdana, sans-serif" font-size="22" font-weight="bold" fill="rgba(255,255,255,0.6)" text-anchor="start">3</text><text x="42.0" y="1034.0" font-family="DejaVu Sans, Verdana, sans-serif" font-size="22" font-weight="bold" fill="rgba(0,0,0,0.55)" text-anchor="start">2</text><text x="42.0" y="1160.0" font-family="DejaVu Sans, Verdana, sans-serif" font-size="22" font-weight="bold" fill="rgba(255,255,255,0.6)" text-anchor="start">1</text><text x="154.0" y="1250.0" font-family="DejaVu Sans, Verdana, sans-serif" font-size="22" font-weight="bold" fill="rgba(255,255,255,0.6)" text-anchor="end">a</text><text x="280.0" y="1250.0" font-family="DejaVu Sans, Verdana, sans-serif" font-size="22" font-weight="bold" fill="rgba(0,0,0,0.55)" text-anchor="end">b</text><text x="406.0" y="1250.0" font-family="DejaVu Sans, Verdana, sans-serif" font-size="22" font-weight="bold" fill="rgba(255,255,255,0.6)" text-anchor="end">c</text><text x="532.0" y="1250.0" font-family="DejaVu Sans, Verdana, sans-serif" font-size="22" font-weight="bold" fill="rgba(0,0,0,0.55)" text-anchor="end">d</text><text x="658.0" y="1250.0" font-family="DejaVu Sans, Verdana, sans-serif" font-size="22" font-weight="bold" fill="rgba(255,255,255,0.6)" text-anchor="end">e</text><text x="784.0" y="1250.0" font-family="DejaVu Sans, Verdana, sans-serif" font-size="22" font-weight="bold" fill="rgba(0,0,0,0.55)" text-anchor="end">f</text><text x="910.0" y="1250.0" font-family="DejaVu Sans, Verdana, sans-serif" font-size="22" font-weight="bold" fill="rgba(255,255,255,0.6)" text-anchor="end">g</text><text x="1036.0" y="1250.0" font-family="DejaVu Sans, Verdana, sans-serif" font-size="22" font-weight="bold" fill="rgba(0,0,0,0.55)" text-anchor="end">h</text><g transform="translate(44.82,258.82) scale(2.4080)"><g fill-rule="evenodd" stroke="#000" stroke-linecap="round" stroke-linejoin="round" stroke-width="1.5"><path stroke-linecap="butt" d="M9 39h27v-3H9zm3.5-7 1.5-2.5h17l1.5 2.5zm-.5 4v-4h21v4z"/><path stroke-linecap="butt" stroke-linejoin="miter" d="M14 29.5v-13h17v13z"/><path stroke-linecap="butt" d="M14 16.5 11 14h23l-3 2.5zM11 14V9h4v2h5V9h5v2h5V9h4v5z"/><path fill="none" stroke="#ececec" stroke-linejoin="miter" stroke-width="1" d="M12 35.5h21m-20-4h19m-18-2h17m-17-13h17M11 14h23"/></g></g><g transform="translate(296.82,258.82) scale(2.4080)"><g fill="none" fill-rule="evenodd" stroke="#000" stroke-linecap="round" stroke-linejoin="round" stroke-width="1.5"><g fill="#000" stroke-linecap="butt"><path d="M9 36c3.4-1 10.1.4 13.5-2 3.4 2.4 10.1 1 13.5 2 0 0 1.6.5 3 2-.7 1-1.6 1-3 .5-3.4-1-10.1.5-13.5-1-3.4 1.5-10.1 0-13.5 1-1.4.5-2.3.5-3-.5 1.4-2 3-2 3-2z"/><path d="M15 32c2.5 2.5 12.5 2.5 15 0 .5-1.5 0-2 0-2 0-2.5-2.5-4-2.5-4 5.5-1.5 6-11.5-5-15.5-11 4-10.5 14-5 15.5 0 0-2.5 1.5-2.5 4 0 0-.5.5 0 2z"/><path d="M25 8a2.5 2.5 0 1 1-5 0 2.5 2.5 0 1 1 5 0z"/></g><path stroke="#ececec" stroke-linejoin="miter" d="M17.5 26h10M15 30h15m-7.5-14.5v5M20 18h5"/></g></g><g transform="translate(422.82,258.82) scale(2.4080)"><g fill-rule="evenodd" stroke="#000" stroke-linecap="round" stroke-linejoin="round" stroke-width="1.5"><g stroke="none"><circle cx="6" cy="12" r="2.75"/><circle cx="14" cy="9" r="2.75"/><circle cx="22.5" cy="8" r="2.75"/><circle cx="31" cy="9" r="2.75"/><circle cx="39" cy="12" r="2.75"/></g><path stroke-linecap="butt" d="M9 26c8.5-1.5 21-1.5 27 0l2.5-12.5L31 25l-.3-14.1-5.2 13.6-3-14.5-3 14.5-5.2-13.6L14 25 6.5 13.5z"/><path stroke-linecap="butt" d="M9 26c0 2 1.5 2 2.5 4 1 1.5 1 1 .5 3.5-1.5 1-1.5 2.5-1.5 2.5-1.5 1.5.5 2.5.5 2.5 6.5 1 16.5 1 23 0 0 0 1.5-1 0-2.5 0 0 .5-1.5-1-2.5-.5-2.5-.5-2 .5-3.5 1-2 2.5-2 2.5-4-8.5-1.5-18.5-1.5-27 0z"/><path fill="none" stroke-linecap="butt" d="M11 38.5a35 35 1 0 0 23 0"/><path fill="none" stroke="#ececec" d="M11 29a35 35 1 0 1 23 0m-21.5 2.5h20m-21 3a35 35 1 0 0 22 0m-23 3a35 35 1 0 0 24 0"/></g></g><g transform="translate(548.82,258.82) scale(2.4080)"><g fill="none" fill-rule="evenodd" stroke="#000" stroke-linecap="round" stroke-linejoin="round" stroke-width="1.5"><path stroke-linejoin="miter" d="M22.5 11.6V6"/><path fill="#000" stroke-linecap="butt" stroke-linejoin="miter" d="M22.5 25s4.5-7.5 3-10.5c0 0-1-2.5-3-2.5s-3 2.5-3 2.5c-1.5 3 3 10.5 3 10.5"/><path fill="#000" d="M11.5 37a22.3 22.3 0 0 0 21 0v-7s9-4.5 6-10.5c-4-6.5-13.5-3.5-16 4V27v-3.5c-3.5-7.5-13-10.5-16-4-3 6 5 10 5 10z"/><path stroke-linejoin="miter" d="M20 8h5"/><path stroke="#ececec" d="M32 29.5s8.5-4 6-9.7C34.1 14 25 18 22.5 24.6v2.1-2.1C20 18 9.9 14 7 19.9c-2.5 5.6 4.8 9 4.8 9"/><path stroke="#ececec" d="M11.5 30c5.5-3 15.5-3 21 0m-21 3.5c5.5-3 15.5-3 21 0m-21 3.5c5.5-3 15.5-3 21 0"/></g></g><g transform="translate(674.82,258.82) scale(2.4080)"><g fill="none" fill-rule="evenodd" stroke="#000" stroke-linecap="round" stroke-linejoin="round" stroke-width="1.5"><g fill="#000" stroke-linecap="butt"><path d="M9 36c3.4-1 10.1.4 13.5-2 3.4 2.4 10.1 1 13.5 2 0 0 1.6.5 3 2-.7 1-1.6 1-3 .5-3.4-1-10.1.5-13.5-1-3.4 1.5-10.1 0-13.5 1-1.4.5-2.3.5-3-.5 1.4-2 3-2 3-2z"/><path d="M15 32c2.5 2.5 12.5 2.5 15 0 .5-1.5 0-2 0-2 0-2.5-2.5-4-2.5-4 5.5-1.5 6-11.5-5-15.5-11 4-10.5 14-5 15.5 0 0-2.5 1.5-2.5 4 0 0-.5.5 0 2z"/><path d="M25 8a2.5 2.5 0 1 1-5 0 2.5 2.5 0 1 1 5 0z"/></g><path stroke="#ececec" stroke-linejoin="miter" d="M17.5 26h10M15 30h15m-7.5-14.5v5M20 18h5"/></g></g><g transform="translate(800.82,258.82) scale(2.4080)"><g fill="none" fill-rule="evenodd" stroke="#000" stroke-linecap="round" stroke-linejoin="round" stroke-width="1.5"><path fill="#000" d="M22 10c10.5 1 16.5 8 16 29H15c0-9 10-6.5 8-21"/><path fill="#000" d="M24 18c.38 2.91-5.55 7.37-8 9-3 2-2.82 4.34-5 4-1.04-.94 1.41-3.04 0-3-1 0 .19 1.23-1 2-1 0-4 1-4-4 0-2 6-12 6-12s1.89-1.9 2-3.5c-.73-1-.5-2-.5-3 1-1 3 2.5 3 2.5h2s.78-2 2.5-3c1 0 1 3 1 3"/><path fill="#ececec" stroke="#ececec" d="M9.5 25.5a.5.5 0 1 1-1 0 .5.5 0 1 1 1 0m5.43-9.75a.5 1.5 30 1 1-.86-.5.5 1.5 30 1 1 .86.5"/><path fill="#ececec" stroke="none" d="m24.55 10.4-.45 1.45.5.15c3.15 1 5.65 2.49 7.9 6.75S35.75 29.06 35.25 39l-.05.5h2.25l.05-.5c.5-10.06-.88-16.85-3.25-21.34s-5.79-6.64-9.19-7.16z"/></g></g><g transform="translate(926.82,258.82) scale(2.4080)"><g fill-rule="evenodd" stroke="#000" stroke-linecap="round" stroke-linejoin="round" stroke-width="1.5"><path stroke-linecap="butt" d="M9 39h27v-3H9zm3.5-7 1.5-2.5h17l1.5 2.5zm-.5 4v-4h21v4z"/><path stroke-linecap="butt" stroke-linejoin="miter" d="M14 29.5v-13h17v13z"/><path stroke-linecap="butt" d="M14 16.5 11 14h23l-3 2.5zM11 14V9h4v2h5V9h5v2h5V9h4v5z"/><path fill="none" stroke="#ececec" stroke-linejoin="miter" stroke-width="1" d="M12 35.5h21m-20-4h19m-18-2h17m-17-13h17M11 14h23"/></g></g><g transform="translate(170.82,384.82) scale(2.4080)"><path stroke="#000" stroke-linecap="round" stroke-width="1.5" d="M22.5 9a4 4 0 0 0-3.22 6.38 6.48 6.48 0 0 0-.87 10.65c-3 1.06-7.41 5.55-7.41 13.47h23c0-7.92-4.41-12.41-7.41-13.47a6.46 6.46 0 0 0-.87-10.65A4.01 4.01 0 0 0 22.5 9z"/></g><g transform="translate(296.82,384.82) scale(2.4080)"><path stroke="#000" stroke-linecap="round" stroke-width="1.5" d="M22.5 9a4 4 0 0 0-3.22 6.38 6.48 6.48 0 0 0-.87 10.65c-3 1.06-7.41 5.55-7.41 13.47h23c0-7.92-4.41-12.41-7.41-13.47a6.46 6.46 0 0 0-.87-10.65A4.01 4.01 0 0 0 22.5 9z"/></g><g transform="translate(422.82,384.82) scale(2.4080)"><path stroke="#000" stroke-linecap="round" stroke-width="1.5" d="M22.5 9a4 4 0 0 0-3.22 6.38 6.48 6.48 0 0 0-.87 10.65c-3 1.06-7.41 5.55-7.41 13.47h23c0-7.92-4.41-12.41-7.41-13.47a6.46 6.46 0 0 0-.87-10.65A4.01 4.01 0 0 0 22.5 9z"/></g><g transform="translate(674.82,384.82) scale(2.4080)"><path stroke="#000" stroke-linecap="round" stroke-width="1.5" d="M22.5 9a4 4 0 0 0-3.22 6.38 6.48 6.48 0 0 0-.87 10.65c-3 1.06-7.41 5.55-7.41 13.47h23c0-7.92-4.41-12.41-7.41-13.47a6.46 6.46 0 0 0-.87-10.65A4.01 4.01 0 0 0 22.5 9z"/></g><g transform="translate(800.82,384.82) scale(2.4080)"><path stroke="#000" stroke-linecap="round" stroke-width="1.5" d="M22.5 9a4 4 0 0 0-3.22 6.38 6.48 6.48 0 0 0-.87 10.65c-3 1.06-7.41 5.55-7.41 13.47h23c0-7.92-4.41-12.41-7.41-13.47a6.46 6.46 0 0 0-.87-10.65A4.01 4.01 0 0 0 22.5 9z"/></g><g transform="translate(926.82,384.82) scale(2.4080)"><path stroke="#000" stroke-linecap="round" stroke-width="1.5" d="M22.5 9a4 4 0 0 0-3.22 6.38 6.48 6.48 0 0 0-.87 10.65c-3 1.06-7.41 5.55-7.41 13.47h23c0-7.92-4.41-12.41-7.41-13.47a6.46 6.46 0 0 0-.87-10.65A4.01 4.01 0 0 0 22.5 9z"/></g><g transform="translate(44.82,510.82) scale(2.4080)"><path stroke="#000" stroke-linecap="round" stroke-width="1.5" d="M22.5 9a4 4 0 0 0-3.22 6.38 6.48 6.48 0 0 0-.87 10.65c-3 1.06-7.41 5.55-7.41 13.47h23c0-7.92-4.41-12.41-7.41-13.47a6.46 6.46 0 0 0-.87-10.65A4.01 4.01 0 0 0 22.5 9z"/></g><g transform="translate(296.82,510.82) scale(2.4080)"><g fill="none" fill-rule="evenodd" stroke="#000" stroke-linecap="round" stroke-linejoin="round" stroke-width="1.5"><path fill="#000" d="M22 10c10.5 1 16.5 8 16 29H15c0-9 10-6.5 8-21"/><path fill="#000" d="M24 18c.38 2.91-5.55 7.37-8 9-3 2-2.82 4.34-5 4-1.04-.94 1.41-3.04 0-3-1 0 .19 1.23-1 2-1 0-4 1-4-4 0-2 6-12 6-12s1.89-1.9 2-3.5c-.73-1-.5-2-.5-3 1-1 3 2.5 3 2.5h2s.78-2 2.5-3c1 0 1 3 1 3"/><path fill="#ececec" stroke="#ececec" d="M9.5 25.5a.5.5 0 1 1-1 0 .5.5 0 1 1 1 0m5.43-9.75a.5 1.5 30 1 1-.86-.5.5 1.5 30 1 1 .86.5"/><path fill="#ececec" stroke="none" d="m24.55 10.4-.45 1.45.5.15c3.15 1 5.65 2.49 7.9 6.75S35.75 29.06 35.25 39l-.05.5h2.25l.05-.5c.5-10.06-.88-16.85-3.25-21.34s-5.79-6.64-9.19-7.16z"/></g></g><g transform="translate(170.82,636.82) scale(2.4080)"><g fill="none" fill-rule="evenodd" stroke="#000" stroke-linecap="round" stroke-linejoin="round" stroke-width="1.5"><g fill="#fff" stroke-linecap="butt"><path d="M9 36c3.39-.97 10.11.43 13.5-2 3.39 2.43 10.11 1.03 13.5 2 0 0 1.65.54 3 2-.68.97-1.65.99-3 .5-3.39-.97-10.11.46-13.5-1-3.39 1.46-10.11.03-13.5 1-1.35.49-2.32.47-3-.5 1.35-1.94 3-2 3-2z"/><path d="M15 32c2.5 2.5 12.5 2.5 15 0 .5-1.5 0-2 0-2 0-2.5-2.5-4-2.5-4 5.5-1.5 6-11.5-5-15.5-11 4-10.5 14-5 15.5 0 0-2.5 1.5-2.5 4 0 0-.5.5 0 2z"/><path d="M25 8a2.5 2.5 0 1 1-5 0 2.5 2.5 0 1 1 5 0z"/></g><path stroke-linejoin="miter" d="M17.5 26h10M15 30h15m-7.5-14.5v5M20 18h5"/></g></g><g transform="translate(548.82,636.82) scale(2.4080)"><path stroke="#000" stroke-linecap="round" stroke-width="1.5" d="M22.5 9a4 4 0 0 0-3.22 6.38 6.48 6.48 0 0 0-.87 10.65c-3 1.06-7.41 5.55-7.41 13.47h23c0-7.92-4.41-12.41-7.41-13.47a6.46 6.46 0 0 0-.87-10.65A4.01 4.01 0 0 0 22.5 9z"/></g><g transform="translate(548.82,762.82) scale(2.4080)"><path fill="#fff" stroke="#000" stroke-linecap="round" stroke-width="1.5" d="M22.5 9c-2.21 0-4 1.79-4 4 0 .89.29 1.71.78 2.38C17.33 16.5 16 18.59 16 21c0 2.03.94 3.84 2.41 5.03-3 1.06-7.41 5.55-7.41 13.47h23c0-7.92-4.41-12.41-7.41-13.47 1.47-1.19 2.41-3 2.41-5.03 0-2.41-1.33-4.5-3.28-5.62.49-.67.78-1.49.78-2.38 0-2.21-1.79-4-4-4z"/></g><g transform="translate(674.82,888.82) scale(2.4080)"><g fill="none" fill-rule="evenodd" stroke="#000" stroke-linecap="round" stroke-linejoin="round" stroke-width="1.5"><path fill="#fff" d="M22 10c10.5 1 16.5 8 16 29H15c0-9 10-6.5 8-21"/><path fill="#fff" d="M24 18c.38 2.91-5.55 7.37-8 9-3 2-2.82 4.34-5 4-1.042-.94 1.41-3.04 0-3-1 0 .19 1.23-1 2-1 0-4.003 1-4-4 0-2 6-12 6-12s1.89-1.9 2-3.5c-.73-.994-.5-2-.5-3 1-1 3 2.5 3 2.5h2s.78-1.992 2.5-3c1 0 1 3 1 3"/><path fill="#000" d="M9.5 25.5a.5.5 0 1 1-1 0 .5.5 0 1 1 1 0m5.433-9.75a.5 1.5 30 1 1-.866-.5.5 1.5 30 1 1 .866.5"/></g></g><g transform="translate(44.82,1014.82) scale(2.4080)"><path fill="#fff" stroke="#000" stroke-linecap="round" stroke-width="1.5" d="M22.5 9c-2.21 0-4 1.79-4 4 0 .89.29 1.71.78 2.38C17.33 16.5 16 18.59 16 21c0 2.03.94 3.84 2.41 5.03-3 1.06-7.41 5.55-7.41 13.47h23c0-7.92-4.41-12.41-7.41-13.47 1.47-1.19 2.41-3 2.41-5.03 0-2.41-1.33-4.5-3.28-5.62.49-.67.78-1.49.78-2.38 0-2.21-1.79-4-4-4z"/></g><g transform="translate(170.82,1014.82) scale(2.4080)"><path fill="#fff" stroke="#000" stroke-linecap="round" stroke-width="1.5" d="M22.5 9c-2.21 0-4 1.79-4 4 0 .89.29 1.71.78 2.38C17.33 16.5 16 18.59 16 21c0 2.03.94 3.84 2.41 5.03-3 1.06-7.41 5.55-7.41 13.47h23c0-7.92-4.41-12.41-7.41-13.47 1.47-1.19 2.41-3 2.41-5.03 0-2.41-1.33-4.5-3.28-5.62.49-.67.78-1.49.78-2.38 0-2.21-1.79-4-4-4z"/></g><g transform="translate(296.82,1014.82) scale(2.4080)"><path fill="#fff" stroke="#000" stroke-linecap="round" stroke-width="1.5" d="M22.5 9c-2.21 0-4 1.79-4 4 0 .89.29 1.71.78 2.38C17.33 16.5 16 18.59 16 21c0 2.03.94 3.84 2.41 5.03-3 1.06-7.41 5.55-7.41 13.47h23c0-7.92-4.41-12.41-7.41-13.47 1.47-1.19 2.41-3 2.41-5.03 0-2.41-1.33-4.5-3.28-5.62.49-.67.78-1.49.78-2.38 0-2.21-1.79-4-4-4z"/></g><g transform="translate(422.82,1014.82) scale(2.4080)"><path fill="#fff" stroke="#000" stroke-linecap="round" stroke-width="1.5" d="M22.5 9c-2.21 0-4 1.79-4 4 0 .89.29 1.71.78 2.38C17.33 16.5 16 18.59 16 21c0 2.03.94 3.84 2.41 5.03-3 1.06-7.41 5.55-7.41 13.47h23c0-7.92-4.41-12.41-7.41-13.47 1.47-1.19 2.41-3 2.41-5.03 0-2.41-1.33-4.5-3.28-5.62.49-.67.78-1.49.78-2.38 0-2.21-1.79-4-4-4z"/></g><g transform="translate(674.82,1014.82) scale(2.4080)"><path fill="#fff" stroke="#000" stroke-linecap="round" stroke-width="1.5" d="M22.5 9c-2.21 0-4 1.79-4 4 0 .89.29 1.71.78 2.38C17.33 16.5 16 18.59 16 21c0 2.03.94 3.84 2.41 5.03-3 1.06-7.41 5.55-7.41 13.47h23c0-7.92-4.41-12.41-7.41-13.47 1.47-1.19 2.41-3 2.41-5.03 0-2.41-1.33-4.5-3.28-5.62.49-.67.78-1.49.78-2.38 0-2.21-1.79-4-4-4z"/></g><g transform="translate(800.82,1014.82) scale(2.4080)"><path fill="#fff" stroke="#000" stroke-linecap="round" stroke-width="1.5" d="M22.5 9c-2.21 0-4 1.79-4 4 0 .89.29 1.71.78 2.38C17.33 16.5 16 18.59 16 21c0 2.03.94 3.84 2.41 5.03-3 1.06-7.41 5.55-7.41 13.47h23c0-7.92-4.41-12.41-7.41-13.47 1.47-1.19 2.41-3 2.41-5.03 0-2.41-1.33-4.5-3.28-5.62.49-.67.78-1.49.78-2.38 0-2.21-1.79-4-4-4z"/></g><g transform="translate(926.82,1014.82) scale(2.4080)"><path fill="#fff" stroke="#000" stroke-linecap="round" stroke-width="1.5" d="M22.5 9c-2.21 0-4 1.79-4 4 0 .89.29 1.71.78 2.38C17.33 16.5 16 18.59 16 21c0 2.03.94 3.84 2.41 5.03-3 1.06-7.41 5.55-7.41 13.47h23c0-7.92-4.41-12.41-7.41-13.47 1.47-1.19 2.41-3 2.41-5.03 0-2.41-1.33-4.5-3.28-5.62.49-.67.78-1.49.78-2.38 0-2.21-1.79-4-4-4z"/></g><g transform="translate(44.82,1140.82) scale(2.4080)"><g fill="#fff" fill-rule="evenodd" stroke="#000" stroke-linecap="round" stroke-linejoin="round" stroke-width="1.5"><path stroke-linecap="butt" d="M9 39h27v-3H9zm3-3v-4h21v4zm-1-22V9h4v2h5V9h5v2h5V9h4v5"/><path d="m34 14-3 3H14l-3-3"/><path stroke-linecap="butt" stroke-linejoin="miter" d="M31 17v12.5H14V17"/><path d="m31 29.5 1.5 2.5h-20l1.5-2.5"/><path fill="none" stroke-linejoin="miter" d="M11 14h23"/></g></g><g transform="translate(170.82,1140.82) scale(2.4080)"><g fill="none" fill-rule="evenodd" stroke="#000" stroke-linecap="round" stroke-linejoin="round" stroke-width="1.5"><path fill="#fff" d="M22 10c10.5 1 16.5 8 16 29H15c0-9 10-6.5 8-21"/><path fill="#fff" d="M24 18c.38 2.91-5.55 7.37-8 9-3 2-2.82 4.34-5 4-1.042-.94 1.41-3.04 0-3-1 0 .19 1.23-1 2-1 0-4.003 1-4-4 0-2 6-12 6-12s1.89-1.9 2-3.5c-.73-.994-.5-2-.5-3 1-1 3 2.5 3 2.5h2s.78-1.992 2.5-3c1 0 1 3 1 3"/><path fill="#000" d="M9.5 25.5a.5.5 0 1 1-1 0 .5.5 0 1 1 1 0m5.433-9.75a.5 1.5 30 1 1-.866-.5.5 1.5 30 1 1 .866.5"/></g></g><g transform="translate(296.82,1140.82) scale(2.4080)"><g fill="none" fill-rule="evenodd" stroke="#000" stroke-linecap="round" stroke-linejoin="round" stroke-width="1.5"><g fill="#fff" stroke-linecap="butt"><path d="M9 36c3.39-.97 10.11.43 13.5-2 3.39 2.43 10.11 1.03 13.5 2 0 0 1.65.54 3 2-.68.97-1.65.99-3 .5-3.39-.97-10.11.46-13.5-1-3.39 1.46-10.11.03-13.5 1-1.35.49-2.32.47-3-.5 1.35-1.94 3-2 3-2z"/><path d="M15 32c2.5 2.5 12.5 2.5 15 0 .5-1.5 0-2 0-2 0-2.5-2.5-4-2.5-4 5.5-1.5 6-11.5-5-15.5-11 4-10.5 14-5 15.5 0 0-2.5 1.5-2.5 4 0 0-.5.5 0 2z"/><path d="M25 8a2.5 2.5 0 1 1-5 0 2.5 2.5 0 1 1 5 0z"/></g><path stroke-linejoin="miter" d="M17.5 26h10M15 30h15m-7.5-14.5v5M20 18h5"/></g></g><g transform="translate(422.82,1140.82) scale(2.4080)"><g fill="#fff" fill-rule="evenodd" stroke="#000" stroke-linecap="round" stroke-linejoin="round" stroke-width="1.5"><path d="M8 12a2 2 0 1 1-4 0 2 2 0 1 1 4 0m16.5-4.5a2 2 0 1 1-4 0 2 2 0 1 1 4 0M41 12a2 2 0 1 1-4 0 2 2 0 1 1 4 0M16 8.5a2 2 0 1 1-4 0 2 2 0 1 1 4 0M33 9a2 2 0 1 1-4 0 2 2 0 1 1 4 0"/><path stroke-linecap="butt" d="M9 26c8.5-1.5 21-1.5 27 0l2-12-7 11V11l-5.5 13.5-3-15-3 15-5.5-14V25L7 14z"/><path stroke-linecap="butt" d="M9 26c0 2 1.5 2 2.5 4 1 1.5 1 1 .5 3.5-1.5 1-1.5 2.5-1.5 2.5-1.5 1.5.5 2.5.5 2.5 6.5 1 16.5 1 23 0 0 0 1.5-1 0-2.5 0 0 .5-1.5-1-2.5-.5-2.5-.5-2 .5-3.5 1-2 2.5-2 2.5-4-8.5-1.5-18.5-1.5-27 0z"/><path fill="none" d="M11.5 30c3.5-1 18.5-1 22 0M12 33.5c6-1 15-1 21 0"/></g></g><g transform="translate(548.82,1140.82) scale(2.4080)"><g fill="none" fill-rule="evenodd" stroke="#000" stroke-linecap="round" stroke-linejoin="round" stroke-width="1.5"><path stroke-linejoin="miter" d="M22.5 11.63V6M20 8h5"/><path fill="#fff" stroke-linecap="butt" stroke-linejoin="miter" d="M22.5 25s4.5-7.5 3-10.5c0 0-1-2.5-3-2.5s-3 2.5-3 2.5c-1.5 3 3 10.5 3 10.5"/><path fill="#fff" d="M11.5 37c5.5 3.5 15.5 3.5 21 0v-7s9-4.5 6-10.5c-4-6.5-13.5-3.5-16 4V27v-3.5c-3.5-7.5-13-10.5-16-4-3 6 5 10 5 10z"/><path d="M11.5 30c5.5-3 15.5-3 21 0m-21 3.5c5.5-3 15.5-3 21 0m-21 3.5c5.5-3 15.5-3 21 0"/></g></g><g transform="translate(926.82,1140.82) scale(2.4080)"><g fill="#fff" fill-rule="evenodd" stroke="#000" stroke-linecap="round" stroke-linejoin="round" stroke-width="1.5"><path stroke-linecap="butt" d="M9 39h27v-3H9zm3-3v-4h21v4zm-1-22V9h4v2h5V9h5v2h5V9h4v5"/><path d="m34 14-3 3H14l-3-3"/><path stroke-linecap="butt" stroke-linejoin="miter" d="M31 17v12.5H14V17"/><path d="m31 29.5 1.5 2.5h-20l1.5-2.5"/><path fill="none" stroke-linejoin="miter" d="M11 14h23"/></g></g><circle cx="477.0" cy="817.0" r="20.16" fill="rgba(20,85,30,0.55)"/><circle cx="981.0" cy="817.0" r="20.16" fill="rgba(20,85,30,0.55)"/><circle cx="855.0" cy="691.0" r="20.16" fill="rgba(20,85,30,0.55)"/><circle cx="855.0" cy="1195.0" r="20.16" fill="rgba(20,85,30,0.55)"/><circle cx="603.0" cy="691.0" r="55.44" fill="none" stroke="rgba(20,85,0,0.42)" stroke-width="11.34"/><rect x="36" y="250" width="1008" height="1008" rx="4" ry="4" fill="none" stroke="rgba(0,0,0,0.35)" stroke-width="2"/><text x="36" y="1316" font-family="DejaVu Sans, Verdana, sans-serif" font-size="34" font-weight="bold" fill="#E7E3DA" text-anchor="start">You (White)</text><text x="36" y="1386" font-family="DejaVu Sans, Verdana, sans-serif" font-size="38" font-weight="bold" fill="#88B06A" text-anchor="start">White to move</text><text x="36" y="1446" font-family="DejaVu Sans, Verdana, sans-serif" font-size="30" font-weight="normal" fill="#9AA0A6" text-anchor="start">1. e4  e5   2. Nf3  Nc6   3. Bb5  a6</text><rect x="36" y="1488" width="494.0" height="96" rx="16" ry="16" fill="#88B06A" stroke="none" stroke-width="0"/><text x="283.0" y="1548.0" font-family="DejaVu Sans, Verdana, sans-serif" font-size="34" font-weight="bold" fill="#10160C" text-anchor="middle">Hint</text><rect x="550.0" y="1488" width="494.0" height="96" rx="16" ry="16" fill="none" stroke="#3A424B" stroke-width="2"/><text x="797.0" y="1548.0" font-family="DejaVu Sans, Verdana, sans-serif" font-size="34" font-weight="normal" fill="#E7E3DA" text-anchor="middle">Undo</text><rect x="36.0" y="1604" width="322.6666666666667" height="96" rx="16" ry="16" fill="none" stroke="#3A424B" stroke-width="2"/><text x="197.33333333333334" y="1664.0" font-family="DejaVu Sans, Verdana, sans-serif" font-size="32" font-weight="normal" fill="#E7E3DA" text-anchor="middle">Flip</text><rect x="378.6666666666667" y="1604" width="322.6666666666667" height="96" rx="16" ry="16" fill="none" stroke="#3A424B" stroke-width="2"/><text x="540.0" y="1664.0" font-family="DejaVu Sans, Verdana, sans-serif" font-size="32" font-weight="normal" fill="#E7E3DA" text-anchor="middle">a–h ✓</text><rect x="721.3333333333334" y="1604" width="322.6666666666667" height="96" rx="16" ry="16" fill="none" stroke="#3A424B" stroke-width="2"/><text x="882.6666666666667" y="1664.0" font-family="DejaVu Sans, Verdana, sans-serif" font-size="32" font-weight="normal" fill="#E7E3DA" text-anchor="middle">Sound ✓</text></svg>